<svg width="1345px" height="513px" viewBox="0 0 1345 513" version="1.1" xmlns="http://www.w3.org/2000/svg" xmlns:xlink="http://www.w3.org/1999/xlink">
    <title>Group 22</title>
    <desc>Created with Sketch.</desc>
    <defs>
        <polygon id="path-1" points="0.773155136 0.746096552 321.783783 0.746096552 321.783783 367 0.773155136 367"></polygon>
    </defs>
    <g id="Page-1" stroke="none" stroke-width="1" fill="none" fill-rule="evenodd">
        <g id="Group-22">
            <path d="M487.473988,343 C460.818265,343 446.688901,327.544113 446.688901,295.563959 L446.688901,238.802493 L390.179075,238.802493 L390.179075,340.603778 L357.124046,340.603778 L357.124046,238.802493 L335,238.802493 L335,210.286941 L357.124046,210.286941 L357.124046,196.428535 C357.124046,162.05216 372.851329,141 406.170982,141 C417.101965,141 425.630982,143.398766 433.093872,147.130462 L422.697224,173.778894 C419.768555,172.181413 416.303006,171.113034 411.236994,171.113034 C397.107629,171.113034 390.179075,179.108072 390.179075,196.428535 L390.179075,210.286941 L446.688901,210.286941 L446.688901,145.530437 L479.74393,141.267095 L479.74393,293.434832 C479.74393,306.759048 484.809942,313.421156 495.471213,313.421156 C498.936762,313.421156 502.135144,312.619872 505.068902,311.286941 L512,337.403727 C505.867861,340.603778 498.137803,343 487.473988,343" id="Fill-1" fill="#82B2DF"></path>
            <path d="M547.394277,258.555647 L601.728284,258.555647 C599.871359,243.140194 590.331222,233.840696 575.488477,233.840696 C560.380097,233.840696 550.839959,243.406547 547.394277,258.555647 M619.219801,303.201357 L631.939985,327.383604 C623.194226,333.230669 607.557103,342 582.908585,342 C540.237276,342 514,315.159304 514,274.498732 C514,233.574344 538.645988,207 575.751584,207 C610.739679,207 633,230.652079 633,267.857682 C633,273.968564 632.471257,278.220053 631.674348,282.207727 L546.599898,282.207727 C549.248671,299.746388 560.645733,313.566264 583.9686,313.566264 C600.136996,313.566264 612.591543,307.186494 619.219801,303.201357" id="Fill-3" fill="#82B2DF"></path>
            <path d="M775,340.600973 L744.75,340.600973 L744.75,322.190609 C736.523256,335.530419 723.25358,343 704.946035,343 C678.411747,343 654,327.528571 654,285.10502 L654,212.000924 L686.901909,208 L686.901909,275.501273 C686.901909,303.780245 696.719292,314.186214 713.172779,314.186214 C729.623734,314.186214 742.095558,303.780245 742.095558,275.501273 L742.095558,212.000924 L775,208 L775,340.600973 Z" id="Fill-5" fill="#82B2DF"></path>
            <path d="M890,210.185249 L880.405876,241.77674 C875.875882,240.44892 871.612958,239.650707 867.347489,239.650707 C840.968735,239.650707 834.04021,264.871699 834.04021,287.969192 L834.04021,340 L801,340 L801,212.042678 L831.374611,208.06175 L831.374611,232.7506 C838.837272,216.555748 851.626047,207 871.081364,207 C878.274413,207 884.401732,208.327821 890,210.185249" id="Fill-7" fill="#82B2DF"></path>
            <path d="M987.902466,275.366563 C987.902466,252.468794 975.620526,235.426998 955.867498,235.426998 C936.114469,235.426998 924.100082,252.468794 924.100082,275.366563 C924.100082,298.533748 936.114469,315.575544 955.867498,315.575544 C975.620526,315.575544 987.902466,298.533748 987.902466,275.366563 M891,275.366563 C891,234.628918 917.426555,208 955.867498,208 C994.843545,208 1021,234.628918 1021,275.366563 C1021,316.10675 994.843545,343 955.867498,343 C917.426555,343 891,316.10675 891,275.366563" id="Fill-9" fill="#82B2DF"></path>
            <path d="M1161,265.519129 L1161,340 L1128.13084,340 L1128.13084,275.060109 C1128.13084,246.697769 1117.52364,236.36234 1100.55768,236.36234 C1083.85995,236.36234 1070.87169,246.965959 1070.87169,275.060109 L1070.87169,340 L1038,340 L1038,212.240435 L1068.21989,208.26566 L1068.21989,230.796136 C1076.7016,216.217741 1090.75007,208 1109.83898,208 C1136.34686,208 1161,223.375374 1161,265.519129" id="Fill-11" fill="#82B2DF"></path>
            <path d="M1217.55857,207.973063 L1217.55857,340 L1184.70946,340 L1184.70946,211.956667 L1217.55857,207.973063 Z M1181,169.189342 C1181,157.765958 1188.94741,149 1201.13275,149 C1213.05512,149 1221,157.765958 1221,169.189342 C1221,180.346477 1213.05512,189.112434 1201.13275,189.112434 C1188.94741,189.112434 1181,180.346477 1181,169.189342 L1181,169.189342 Z" id="Fill-13" fill="#82B2DF"></path>
            <path d="M1304.42214,343 C1261.45705,343 1236,316.10675 1236,275.366563 C1236,234.89325 1261.45705,208 1303.89305,208 C1321.66438,208 1333.86128,212.793561 1344.2051,218.918949 L1331.73986,243.682293 C1325.3756,240.220559 1316.88738,237.025699 1306.27775,237.025699 C1282.67631,237.025699 1268.88708,252.733126 1268.88708,275.366563 C1268.88708,298.266874 1283.2054,314.243716 1306.80937,314.243716 C1317.68228,314.243716 1327.49448,310.781982 1332.53476,307.320249 L1345,331.816718 C1334.92452,338.208981 1323.25164,343 1304.42214,343" id="Fill-15" fill="#82B2DF"></path>
            <path d="M260.540353,302 C260.540353,302 277.990425,175.12405 192.219834,119.630103 C106.451781,64.1386946 86.0015665,90.4309133 0,0 C0,0 28.6764955,196.889518 260.540353,302" id="Fill-17" fill="#82B2DF"></path>
            <g id="Group-21" transform="translate(26.000000, 146.000000)">
                <mask id="mask-2" fill="white">
                    <use xlink:href="#path-1"></use>
                </mask>
                <g id="Clip-20"></g>
                <path d="M266.081445,332.39531 C252.015039,334.816497 238.649414,325.380469 236.227148,311.320331 C233.804883,297.260193 243.242578,283.900524 257.308984,281.479338 C271.375391,279.058152 284.743555,288.494179 287.16582,302.554317 C289.588086,316.614455 280.147852,329.974124 266.081445,332.39531 M320.902344,296.744993 C315.643945,266.211145 288.176367,245.065103 257.923437,247.004083 C256.770703,247.090372 255.437695,247.397462 255.437695,247.397462 L255.331055,247.161434 C228.88418,190.890428 217.547266,187.113986 143.495508,147.0832 C126.12832,137.695393 109.068359,124.660579 93.128125,110.207062 C85.2494141,103.245517 77.3097656,95.4642207 69.0375,86.5611586 C29.2224609,44.5863172 0.990625,0.746096552 0.990625,0.746096552 C0.990625,0.746096552 -6.646875,137.583724 68.6007812,200.681766 C141.819727,262.074317 193.997461,196.029738 222.175977,261.698703 C206.939062,275.022841 198.798828,295.727283 202.488086,317.129655 C208.119727,349.813131 239.192773,371.748469 271.893359,366.119338 C304.591406,360.490207 326.533984,329.431007 320.902344,296.744993" id="Fill-19" fill="#82B2DF" mask="url(#mask-2)"></path>
            </g>
        </g>
    </g>
</svg>
