<svg width="373px" height="549px" viewBox="0 0 373 549" version="1.1" xmlns="http://www.w3.org/2000/svg" xmlns:xlink="http://www.w3.org/1999/xlink">
    <title>Group 7</title>
    <desc>Created with Sketch.</desc>
    <defs>
        <polygon id="path-1" points="0.000646106255 0.514614273 280.430905 0.514614273 280.430905 323.601513 0.000646106255 323.601513"></polygon>
        <polygon id="path-3" points="0.0673827688 0.936531318 343.952562 0.936531318 343.952562 394 0.0673827688 394"></polygon>
    </defs>
    <g id="Page-1" stroke="none" stroke-width="1" fill="none" fill-rule="evenodd">
        <g id="Group-7">
            <g id="Group-3">
                <mask id="mask-2" fill="white">
                    <use xlink:href="#path-1"></use>
                </mask>
                <g id="Clip-2"></g>
                <path d="M278.86872,323.601513 C278.86872,323.601513 297.545498,187.86823 205.742414,128.498107 C113.93933,69.1301378 92.0535579,97.2573606 0.000646106255,0.514183634 C0.000646106255,0.514183634 30.6950006,211.150758 278.86872,323.601513" id="Fill-1" fill="#83B2DF" mask="url(#mask-2)"></path>
            </g>
            <g id="Group-6" transform="translate(29.000000, 155.000000)">
                <mask id="mask-4" fill="white">
                    <use xlink:href="#path-3"></use>
                </mask>
                <g id="Clip-5"></g>
                <path d="M284.280716,356.862882 C269.212841,359.460412 254.893184,349.335876 252.297059,334.245156 C249.703091,319.156596 259.813747,304.817282 274.883778,302.219752 C289.951653,299.620063 304.271309,309.746759 306.865278,324.835319 C309.461403,339.926038 299.348591,354.263193 284.280716,356.862882 M343.008341,318.603838 C337.374059,285.833507 307.949872,263.140209 275.541434,265.221687 C274.305903,265.312374 272.876309,265.642733 272.876309,265.642733 L272.762028,265.387946 C244.431059,204.999159 232.289216,200.946321 152.958622,157.984518 C134.354497,147.909644 116.080278,133.922281 99.0027781,118.410516 C90.5632156,110.937489 82.0589656,102.585665 73.1946219,93.0333193 C30.5439969,47.9857192 0.300434375,0.936531318 0.300434375,0.936531318 C0.300434375,0.936531318 -7.88253438,147.790887 72.7288719,215.505875 C151.164622,281.394171 207.061091,210.51594 237.246434,280.990399 C220.923622,295.290847 212.205903,317.509119 216.153997,340.478796 C222.187184,375.557323 255.475372,399.094872 290.503653,393.055562 C325.534091,387.014092 349.041528,353.680206 343.008341,318.603838" id="Fill-4" fill="#83B2DF" mask="url(#mask-4)"></path>
            </g>
        </g>
    </g>
</svg>
